<?xml version="1.0" encoding="UTF-8" standalone="no"?>
<!DOCTYPE svg PUBLIC "-//W3C//DTD SVG 1.1//EN" "http://www.w3.org/Graphics/SVG/1.1/DTD/svg11.dtd">
<svg width="100%" height="100%" viewBox="0 0 1080 1080" version="1.1" xmlns="http://www.w3.org/2000/svg" xmlns:xlink="http://www.w3.org/1999/xlink" xml:space="preserve" xmlns:serif="http://www.serif.com/" style="fill-rule:evenodd;clip-rule:evenodd;stroke-linecap:round;stroke-linejoin:round;stroke-miterlimit:1.5;">
    <g transform="matrix(1,0,0,1,18.3681,-1.45602)">
        <rect x="-82.886" y="-41.301" width="1238.23" height="1212.26" style="fill:white;"/>
    </g>
    <g transform="matrix(2.70465,0,0,2.48845,-956.017,-494.862)">
        <path d="M634.733,275.563C634.666,274.47 634.937,286.761 632.252,291.368C628.684,297.49 620.57,308.656 613.324,312.291C607.376,315.275 601.319,318.904 594.66,319.288C587.095,319.724 576.04,308.948 569.165,301.476C562.289,294.003 557.479,284.053 553.405,274.454C549.101,264.313 545.544,246.597 543.338,240.627C542.906,239.456 541.01,237.707 540.17,238.631C535.726,243.519 521.592,263.316 516.671,269.955C514.6,272.748 510.9,275 510.644,278.467C510.342,282.561 512.352,289.585 514.858,294.516C517.385,299.488 521.25,304.607 525.809,308.303C530.56,312.155 538.282,313.375 543.364,317.626C549.248,322.548 557.792,329.192 561.072,332.817C565.076,337.243 567.799,347.941 570.543,348.014C573.42,348.091 573.487,341.307 575.078,338.01C578.062,331.83 579.164,330.266 585.884,327.185C590.801,324.931 597.275,326.432 605.422,323.385C612.22,320.843 617.27,317.044 621.808,312.801C626.291,308.611 629.798,303.756 632.653,297.927C636.274,290.535 634.8,276.656 634.733,275.563Z" style="fill:rgb(156,78,82);"/>
        <path d="M615.466,507.472C610.032,500.489 609.214,517.151 582.02,518.268C567.721,518.855 547.378,499.531 534.182,487.781C522.592,477.46 496.348,468.19 483.554,475.587C470.76,482.983 453.373,491.694 454.958,532.884C455.982,559.487 484.615,614.355 533.593,615.658C579.027,616.867 602.198,579.918 614.622,560.168C623.977,545.298 620.899,514.455 615.466,507.472Z" style="fill:rgb(249,215,214);"/>
        <path d="M482.617,491.404C482.617,491.404 466.149,501.058 464.113,510.854C461.835,521.817 464.878,535.62 470.648,546.538C475.509,555.734 490.787,570.374 490.787,570.374C490.787,570.374 482.372,549.248 480.346,539.277C478.435,529.876 478.248,518.528 478.627,510.549C478.936,504.038 482.617,491.404 482.617,491.404Z" style="fill:white;"/>
        <path d="M570.543,348.014C576.35,366.192 573.208,404.181 571.875,424.767C570.848,440.629 565.952,458.45 562.543,471.53C559.717,482.372 557.536,491.393 551.42,503.248C542.551,520.436 519.596,555.12 500.46,570.422" style="fill:none;stroke:rgb(156,78,82);stroke-width:0.77px;"/>
        <path d="M606.916,244.86C601.874,248.516 576.819,257.368 570.058,257.113C566.35,256.974 584.478,277.498 587.986,282.709C590.226,286.038 605.634,274.246 607.665,267.653C610.93,257.059 607.836,244.193 606.916,244.86Z" style="fill:rgb(236,168,167);"/>
        <path d="M540,237.875C540.761,226.452 512.966,229.012 510.384,232.073C504.661,238.859 507.846,273.556 512.782,285.477C516.952,295.549 535.334,304.981 540,303.603C541.623,303.123 541.757,284.317 540,274.919C538.075,264.619 539.053,252.086 540,237.875Z" style="fill:none;"/>
        <clipPath id="_clip1">
            <path d="M540,237.875C540.761,226.452 512.966,229.012 510.384,232.073C504.661,238.859 507.846,273.556 512.782,285.477C516.952,295.549 535.334,304.981 540,303.603C541.623,303.123 541.757,284.317 540,274.919C538.075,264.619 539.053,252.086 540,237.875Z"/>
        </clipPath>
        <g clip-path="url(#_clip1)">
            <path d="M539.612,243.689C542.167,235.382 517.768,231.724 514.39,237.085C510.054,243.965 508.054,273.224 512.25,284.089C516.191,294.293 537.631,306.045 539.567,302.274C546.31,289.137 535.239,257.911 539.612,243.689Z" style="fill:rgb(236,168,167);"/>
        </g>
        <path d="M540,237.875C540.761,226.452 512.966,229.012 510.384,232.073C504.661,238.859 507.846,273.556 512.782,285.477C516.952,295.549 535.334,304.981 540,303.603C541.623,303.123 541.757,284.317 540,274.919C538.075,264.619 539.053,252.086 540,237.875Z" style="fill:none;stroke:rgb(154,78,80);stroke-width:0.77px;"/>
        <path d="M602.651,212.681C615.208,216.182 625.875,235.885 623.557,247.518C621.24,259.152 603.298,277.294 588.744,282.482" style="fill:none;stroke:rgb(154,78,80);stroke-width:1.54px;"/>
        <path d="M571.645,256.34C585.117,256.108 608.353,250.392 607.662,241C606.627,226.915 593.69,221.658 587.27,222.498C581.409,223.266 573.414,231.322 572.71,234.974C571.557,240.95 581.124,244.074 584.898,243.868C590.784,243.547 597.517,238.719 595.368,235.766C590.246,228.727 566.443,236.005 563.311,241.998C558.179,251.816 568.049,258.414 574.349,264.183C581.57,270.794 589.525,278.758 586.891,291.631C585.532,298.271 583.217,307.011 582.059,311.381" style="fill:none;stroke:rgb(154,78,80);stroke-width:1.54px;"/>
        <path d="M619.128,264.458C619.128,264.458 619.86,292.317 605.705,309.524C593.773,324.03 579.609,327.764 569.363,326.015C554.608,323.497 546,311.093 543.939,300.874C541.667,289.613 542.927,277.159 542.203,268.237C541.635,261.242 538.825,254.043 539.595,247.343C540.365,240.643 546.822,228.037 546.822,228.037C546.822,228.037 546.148,242.371 549.192,248.542C552.663,255.581 558.956,267.327 567.651,270.269C581.241,274.867 583.885,291.321 583.885,291.321C583.885,291.321 595.267,280.08 602.379,280.578C611.127,281.191 619.128,264.458 619.128,264.458Z" style="fill:rgb(236,169,165);"/>
        <path d="M540.654,238.164C543.216,232.789 547.831,227.784 551.437,225.397C554.485,223.38 559.277,222.728 562.291,223.843" style="fill:none;stroke:rgb(154,78,80);stroke-width:0.77px;"/>
        <path d="M548.709,602.593C542.097,590.933 542.469,569.581 543.469,552.981C544.542,535.148 551.615,508.779 555.151,495.595" style="fill:none;stroke:rgb(156,78,82);stroke-width:0.77px;"/>
        <path d="M572.531,419.406C574.541,416.273 581.977,405.719 589.836,402.657C596.586,400.027 604.866,403.152 611.573,400.3C619.894,396.761 632.573,386.486 639.763,381.427C645.938,377.082 656.948,376.618 657.322,374.044C657.71,371.366 639.206,368.448 629.994,369.257C620.74,370.069 609.959,373.252 601.798,378.917C592.807,385.159 580.921,399.96 576.043,406.709C573.47,410.268 571.237,421.423 572.531,419.406Z" style="fill:none;stroke:rgb(156,78,82);stroke-width:0.77px;"/>
        <path d="M660.125,328.192C660.661,335.812 658.237,351.817 651.242,365.075" style="fill:none;stroke:rgb(156,78,82);stroke-width:0.77px;"/>
        <path d="M654.339,309.92C653.262,310.812 651.106,312.596 650.222,314.429C647.443,320.192 642.954,336.398 637.666,344.499C632.807,351.944 626.797,359.863 618.494,363.038C604.273,368.476 586.329,381.824 586.329,381.824C586.329,381.824 585.978,370.986 587.417,365.844C589.342,358.968 592.084,347.353 597.881,340.566C603.678,333.779 613.617,327.665 622.199,325.121C629.111,323.072 639.71,320.437 646.086,316.894C647.487,316.115 649.311,314.991 650.222,314.429" style="fill:none;stroke:rgb(156,78,82);stroke-width:0.77px;"/>
        <path d="M586.43,382.247C583.572,387.882 577.856,399.15 574.529,409.688" style="fill:none;stroke:rgb(156,78,82);stroke-width:0.77px;"/>
        <path d="M561.882,364.289C552.162,364.059 519.918,363.925 510.555,363.701C507.191,363.621 503.245,367.498 503.435,370.857C503.766,376.712 506.295,398.852 512.542,398.83C524.099,398.789 549.491,398.484 559.385,399.245C563.029,399.525 567.201,382.833 567.617,377.007C567.948,372.368 566.531,364.398 561.882,364.289Z" style="fill:none;stroke:rgb(156,78,82);stroke-width:0.77px;"/>
        <g transform="matrix(1.02993,0,0,1,-16.891,-0.174466)">
            <path d="M560.628,406.493L560.628,408.89C560.628,409.552 560.148,410.089 559.557,410.089L513.733,410.089C513.142,410.089 512.662,409.552 512.662,408.89L512.662,406.493C512.662,405.832 513.142,405.295 513.733,405.295L559.557,405.295C560.148,405.295 560.628,405.832 560.628,406.493Z" style="fill:none;stroke:rgb(156,78,82);stroke-width:0.76px;"/>
        </g>
        <path d="M556.427,399.075L556.427,405.138" style="fill:none;stroke:rgb(156,78,82);stroke-width:0.77px;"/>
        <path d="M515.065,398.919L515.141,404.606" style="fill:none;stroke:rgb(156,78,82);stroke-width:0.77px;"/>
        <path d="M558.21,434.254L513.758,434.687L513.758,438.067C513.758,438.067 446.316,449.328 446.059,524.641C445.817,595.875 513.62,618.519 513.62,618.519L551.733,619.05C551.733,619.05 624.704,602.84 625.417,523.187C626.077,449.495 558.247,438.067 558.247,438.067C558.247,438.067 558.167,434.86 558.21,434.254Z" style="fill:none;stroke:rgb(156,78,82);stroke-width:0.77px;"/>
        <g transform="matrix(1,0,0,1,1.0046,-0.478665)">
            <path d="M555.782,410.936L555.607,434.029" style="fill:none;stroke:rgb(156,78,82);stroke-width:0.77px;"/>
        </g>
        <path d="M514.839,410.405L515.007,434.249" style="fill:none;stroke:rgb(156,78,82);stroke-width:0.77px;"/>
        <rect x="518.373" y="409.988" width="8.878" height="24.484" style="fill:rgb(154,78,80);"/>
        <path d="M483.643,344.554C485.887,343.398 484.203,339.939 484.391,336.661C484.609,332.868 489.975,324.359 488.906,318.229C487.837,312.099 482.379,303.912 477.977,299.881C473.909,296.156 465.504,292.345 462.495,294.043C460.345,295.256 461.483,297.46 459.384,299.181C456.492,301.551 449.695,303.675 448.155,308.165C446.614,312.655 446.863,321.147 450.14,326.121C455.321,333.987 477.592,347.669 483.643,344.554Z" style="fill:rgb(242,198,195);"/>
        <path d="M494.737,319.752C496.939,318.692 503.243,318.601 505.624,319.825C508.003,321.048 509.867,324.594 509.022,327.095C508.176,329.596 503.32,334.982 500.552,334.83C497.784,334.678 493.382,328.699 492.413,326.186C491.592,324.058 492.683,320.742 494.737,319.752Z" style="fill:rgb(247,216,212);"/>
    </g>
</svg>
